<?xml version="1.0" encoding="UTF-8"?>
<svg version="1.1" xmlns="http://www.w3.org/2000/svg" width="512" height="512">
<path d="M0 0 C5.86625999 4.23626672 11.43987852 8.85539562 16.984375 13.5 C26.38259088 22.28617294 26.38259088 22.28617294 37.98046875 25.82421875 C46.94873308 23.37621904 54.01688168 16.40930147 60.87255859 10.41821289 C72.58411558 0.21196851 86.25666594 -9.66269144 102.4375 -8.9375 C110.47277339 -7.95978142 117.8117233 -4.38659058 123.28515625 1.640625 C130.99026817 12.24173571 134.44250427 24.14918993 137.62109375 36.69140625 C139.37307295 43.59655677 141.65681673 50.27608279 144 57 C144.66831736 58.99944901 145.33521313 60.99937438 146 63 C146.6373407 62.99333817 147.2746814 62.98667633 147.93133545 62.97981262 C154.61579297 62.91300374 161.30015432 62.86801186 167.98486328 62.83520508 C170.4735093 62.82019768 172.96212923 62.79978536 175.45068359 62.77368164 C179.04531325 62.73694294 182.63959064 62.7201925 186.234375 62.70703125 C187.33174988 62.69154739 188.42912476 62.67606354 189.55975342 62.66011047 C201.05205446 62.65765425 211.80106703 64.75235584 221 72 C227.81925508 78.83367211 230.11587547 86.4556892 230.5 95.9375 C230.16966809 109.75638482 225.08604852 122.50128307 219.76757812 135.1003418 C216.97599369 141.74674377 214.10552088 148.65474792 215 156 C219.67455198 162.87846988 228.81065245 167.12747038 235.75805664 171.42724609 C249.03291018 179.68062324 263.49120135 188.8738206 267.75390625 204.8203125 C269.76357576 214.70434744 268.54787629 223.48543457 263 232 C254.22727572 244.24101063 240.19929203 252.14173271 227.5222168 259.76489258 C219.30493719 264.51586414 219.30493719 264.51586414 214.421875 272.17578125 C216.10976617 283.16716782 220.61971651 293.52558249 224.6875 303.8125 C229.87943955 317.32829101 233.20397503 331.76014433 227.2421875 345.63671875 C222.90425847 353.88969693 216.64971203 357.68581615 208 361 C201.15783162 363.01212916 194.63628108 363.25442153 187.54296875 363.16015625 C186.47758377 363.15495468 185.41219879 363.14975311 184.31452942 363.14439392 C180.93870872 363.12670358 177.56320261 363.0955313 174.1875 363.0625 C170.79397659 363.0348439 167.40049633 363.01015654 164.00691223 362.99131775 C161.90228894 362.97909743 159.79768828 362.96153002 157.69316101 362.93800354 C156.74149551 362.93147263 155.78983002 362.92494171 154.80932617 362.91821289 C153.97487473 362.90995987 153.14042328 362.90170685 152.28068542 362.89320374 C150.00149393 362.99993004 148.14167128 363.20742046 146 364 C144.39842083 366.7894889 144.39842083 366.7894889 143.1875 370.4375 C142.81020752 371.47487305 142.81020752 371.47487305 142.42529297 372.53320312 C140.07594044 379.24563893 138.3830465 386.11477298 136.625 393 C132.96563224 407.15728712 128.64250226 422.17511276 115.69140625 430.48046875 C107.27935597 435.16549519 100.41127243 435.86621741 91.125 433.4375 C77.77477801 429.20485633 67.84664214 422.57636338 57.75 413.0625 C48.03704374 403.89609891 48.03704374 403.89609891 35.94140625 400.10546875 C28.75439605 402.29115977 22.79253945 407.11202362 17.375 412.1875 C5.32510638 423.37394583 -9.13966137 434.39749847 -26.1171875 435.12890625 C-34.53675462 434.75242154 -40.82624127 431.59789837 -47 426 C-47.52207031 425.54367187 -48.04414063 425.08734375 -48.58203125 424.6171875 C-58.75783425 414.36083725 -61.68550542 397.76511182 -65.15966797 384.29248047 C-66.75999944 378.14644754 -68.45209695 372.37955404 -71.2590332 366.66967773 C-72 365 -72 365 -72 363 C-72.95601105 363.00999275 -72.95601105 363.00999275 -73.93133545 363.02018738 C-80.61579297 363.08699626 -87.30015432 363.13198814 -93.98486328 363.16479492 C-96.4735093 363.17980232 -98.96212923 363.20021464 -101.45068359 363.22631836 C-105.04531325 363.26305706 -108.63959064 363.2798075 -112.234375 363.29296875 C-113.33174988 363.30845261 -114.42912476 363.32393646 -115.55975342 363.33988953 C-127.05205446 363.34234575 -137.80106703 361.24764416 -147 354 C-153.81925508 347.16632789 -156.11587547 339.5443108 -156.5 330.0625 C-156.16966809 316.24361518 -151.08604852 303.49871693 -145.76757812 290.8996582 C-142.97599369 284.25325623 -140.10552088 277.34525208 -141 270 C-145.66405086 263.13698222 -154.7569543 258.92819983 -161.68774414 254.64086914 C-175.78879538 245.85581629 -190.424555 235.90645085 -194.53125 218.78515625 C-196.06633008 208.85946799 -193.13417147 199.70632119 -187.3359375 191.703125 C-178.89847999 181.47392941 -167.26690718 174.49427542 -156 167.75 C-147.65561349 162.84437795 -147.65561349 162.84437795 -141 156 C-140.45078978 150.92577512 -141.39509403 146.96453767 -143.0625 142.1875 C-143.28147949 141.55223389 -143.50045898 140.91696777 -143.72607422 140.26245117 C-145.27454984 135.84090675 -146.97486697 131.48459073 -148.70458984 127.13134766 C-154.2784571 113.08875051 -160.21873842 96.98893395 -154.0859375 82.05078125 C-149.37038648 73.14551403 -143.47930159 68.46665106 -134 65 C-127.14860549 63.00645544 -120.64280613 62.74549176 -113.54296875 62.83984375 C-112.47758377 62.84504532 -111.41219879 62.85024689 -110.31452942 62.85560608 C-106.93870872 62.87329642 -103.56320261 62.9044687 -100.1875 62.9375 C-96.79397659 62.9651561 -93.40049633 62.98984346 -90.00691223 63.00868225 C-87.90228894 63.02090257 -85.79768828 63.03846998 -83.69316101 63.06199646 C-82.74149551 63.06852737 -81.78983002 63.07505829 -80.80932617 63.08178711 C-79.557649 63.09416664 -79.557649 63.09416664 -78.28068542 63.10679626 C-75.99856386 62.99993275 -74.1424434 62.79977138 -72 62 C-70.79775771 59.75287697 -69.94824557 57.76296118 -69.125 55.375 C-68.87161865 54.67568359 -68.6182373 53.97636719 -68.35717773 53.25585938 C-66.20651604 47.09934957 -64.63203259 40.8245539 -63.0625 34.5 C-59.34696506 19.71423177 -54.98899809 4.04212992 -41.37890625 -4.6796875 C-27.02585248 -12.22943644 -13.07223207 -8.53590783 0 0 Z " fill="#FCAA05" transform="translate(219,43)"/>
<path d="M0 0 C20.53232242 17.8060673 34.40782688 44.25175864 37.46728516 71.27246094 C39.2956901 101.99644633 32.23724884 132.73316876 11.46728516 156.27246094 C10.78021484 157.09101563 10.09314453 157.90957031 9.38525391 158.75292969 C-0.07842522 169.75125948 -10.76815078 177.65269864 -23.53271484 184.27246094 C-24.88623047 184.98015625 -24.88623047 184.98015625 -26.26708984 185.70214844 C-41.59304355 193.17935615 -58.16226116 196.39710154 -75.09521484 196.52246094 C-76.5321167 196.53660034 -76.5321167 196.53660034 -77.99804688 196.55102539 C-84.70657348 196.52057909 -90.97848824 195.66810662 -97.53271484 194.27246094 C-99.32322266 193.91667969 -99.32322266 193.91667969 -101.14990234 193.55371094 C-117.34875975 189.66909285 -132.92264385 182.19630151 -145.53271484 171.27246094 C-146.52271484 170.44230469 -147.51271484 169.61214844 -148.53271484 168.75683594 C-169.75416844 150.51240755 -183.53921338 124.35833293 -186.29052734 96.45214844 C-187.06991791 84.70440012 -187.47617091 72.74695068 -184.53271484 61.27246094 C-184.25298828 60.09425781 -183.97326172 58.91605469 -183.68505859 57.70214844 C-176.49419972 28.88048737 -158.91301444 3.80152655 -133.28662109 -11.59863281 C-90.13361344 -36.50030231 -38.07318644 -32.44337447 0 0 Z " fill="#FDD302" transform="translate(330.53271484375,171.7275390625)"/>
</svg>
